<?xml version="1.0" encoding="UTF-8"?>
<svg xmlns="http://www.w3.org/2000/svg" xmlns:xlink="http://www.w3.org/1999/xlink" width="22px" height="22px" viewBox="0 0 19 19" version="1.1">
<g id="surface1">
<path style=" stroke:none;fill-rule:nonzero;fill:rgb(100%,100%,100%);fill-opacity:1;" d="M 8.871094 14.738281 L 12.847656 14.035156 L 12.882812 14.027344 L 10.839844 11.59375 C 10.152344 10.785156 9.46875 9.96875 8.792969 9.152344 C 8.792969 9.140625 10.90625 3.320312 10.917969 3.300781 C 12.085938 5.300781 13.246094 7.308594 14.402344 9.316406 L 17.902344 15.390625 L 17.929688 15.4375 L 4.929688 15.4375 Z M 1.070312 14 C 1.070312 13.996094 2.03125 12.320312 3.210938 10.28125 L 5.351562 6.566406 L 7.847656 4.472656 C 9.222656 3.320312 10.347656 2.375 10.351562 2.375 L 7.601562 8.289062 L 4.941406 14 L 3.003906 14 C 1.9375 14.003906 1.070312 14 1.070312 14 Z M 1.070312 14 "/>
</g>
</svg>
