<?xml version="1.0" encoding="UTF-8"?>
<svg xmlns="http://www.w3.org/2000/svg" xmlns:xlink="http://www.w3.org/1999/xlink" width="22px" height="22px" viewBox="0 0 22 22" version="1.1">
<g id="surface1">
<path style=" stroke:none;fill-rule:nonzero;fill:rgb(100%,100%,100%);fill-opacity:1;" d="M 21.847656 7.425781 C 20.867188 13.582031 15.574219 18.125 9.339844 18.167969 C 8.730469 18.191406 8.117188 18.15625 7.515625 18.058594 C 4.910156 17.617188 2.96875 15.417969 2.855469 12.777344 C 2.867188 9.796875 5.273438 7.378906 8.257812 7.359375 C 11.238281 7.339844 13.679688 9.722656 13.734375 12.703125 C 13.757812 13.601562 13.367188 14.394531 12.5625 14.417969 C 11.703125 14.417969 11.304688 13.804688 11.304688 12.980469 L 11.304688 10.6875 C 11.304688 9.917969 10.683594 9.289062 9.910156 9.28125 L 7.988281 9.28125 C 6.449219 9.273438 5.101562 10.316406 4.726562 11.808594 C 4.347656 13.300781 5.039062 14.855469 6.398438 15.578125 C 7.757812 16.300781 9.433594 16.003906 10.460938 14.855469 L 10.527344 14.753906 L 10.59375 14.867188 C 11.0625 15.503906 11.820312 15.863281 12.609375 15.828125 C 14.054688 15.722656 15.148438 14.484375 15.082031 13.039062 C 15.085938 12.445312 15.019531 11.847656 14.882812 11.269531 C 14.144531 7.871094 10.964844 5.582031 7.511719 5.960938 C 4.054688 6.335938 1.445312 9.261719 1.460938 12.738281 C 1.507812 16.433594 4.464844 19.433594 8.160156 19.527344 C 8.160156 19.527344 8.664062 19.570312 9.230469 19.558594 C 11.988281 19.539062 14.683594 18.738281 17 17.242188 C 17.03125 17.21875 17.066406 17.261719 17.042969 17.296875 C 14.761719 19.753906 11.511719 21.082031 8.160156 20.929688 C 5.972656 20.96875 3.867188 20.113281 2.324219 18.558594 C 0.785156 17.007812 -0.0546875 14.890625 0.00390625 12.703125 C 0.00390625 10.089844 1.238281 7.628906 3.335938 6.0625 C 4.722656 5.039062 6.402344 4.484375 8.128906 4.480469 L 10.707031 4.480469 C 12.742188 4.476562 14.6875 3.621094 16.058594 2.117188 C 16.128906 3.355469 15.742188 4.46875 15.113281 5.449219 C 17.636719 5.050781 19.648438 3.390625 20.644531 1.125 C 21.886719 3.058594 22.230469 5.277344 21.847656 7.425781 Z M 8.152344 10.660156 C 7.046875 10.660156 6.148438 11.558594 6.148438 12.664062 C 6.148438 13.773438 7.046875 14.671875 8.152344 14.671875 C 9.261719 14.671875 10.160156 13.773438 10.160156 12.664062 L 10.160156 10.792969 Z M 8.152344 10.660156 "/>
</g>
</svg>
