<?xml version="1.0" encoding="UTF-8"?>
<svg xmlns="http://www.w3.org/2000/svg" xmlns:xlink="http://www.w3.org/1999/xlink" width="22px" height="22px" viewBox="0 0 22 22" version="1.1">
<g id="surface1">
<path style=" stroke:none;fill-rule:nonzero;fill:rgb(100%,100%,100%);fill-opacity:1;" d="M 13.949219 9.8125 L 13.578125 11.515625 L 15.015625 11.515625 L 15.378906 9.8125 Z M 13.824219 6.941406 L 14.542969 6.941406 L 14.066406 9.21875 L 15.496094 9.21875 L 15.980469 6.941406 L 16.675781 6.941406 L 16.199219 9.21875 L 17.6875 9.214844 L 17.558594 9.8125 L 16.078125 9.8125 L 15.722656 11.515625 L 17.3125 11.515625 L 17.164062 12.113281 L 15.601562 12.113281 L 15.105469 14.371094 L 14.390625 14.371094 L 14.878906 12.113281 L 13.460938 12.113281 L 12.984375 14.371094 L 12.289062 14.371094 L 12.765625 12.113281 L 11.269531 12.113281 L 11.382812 11.515625 L 12.886719 11.515625 L 13.230469 9.816406 L 11.660156 9.816406 L 11.777344 9.21875 L 13.347656 9.21875 Z M 8.789062 6.808594 C 9.402344 6.8125 9.988281 6.929688 10.527344 7.144531 L 10.492188 7.132812 L 10.492188 8.148438 C 9.953125 7.84375 9.304688 7.664062 8.617188 7.664062 C 8.597656 7.664062 8.578125 7.664062 8.558594 7.664062 C 8.53125 7.660156 8.496094 7.660156 8.460938 7.660156 C 7.609375 7.660156 6.84375 8.019531 6.304688 8.59375 L 6.304688 8.597656 C 5.761719 9.214844 5.429688 10.027344 5.429688 10.917969 C 5.429688 10.980469 5.433594 11.039062 5.4375 11.101562 L 5.4375 11.09375 C 5.433594 11.144531 5.429688 11.207031 5.429688 11.265625 C 5.429688 12.109375 5.742188 12.875 6.25 13.464844 L 6.246094 13.460938 C 6.753906 14 7.472656 14.339844 8.269531 14.339844 C 8.308594 14.339844 8.347656 14.339844 8.386719 14.339844 L 8.378906 14.339844 C 8.410156 14.339844 8.445312 14.339844 8.480469 14.339844 C 9.222656 14.339844 9.921875 14.136719 10.515625 13.785156 L 10.5 13.792969 L 10.496094 14.722656 C 9.886719 15.023438 9.167969 15.203125 8.410156 15.203125 C 8.351562 15.203125 8.292969 15.199219 8.230469 15.199219 L 8.242188 15.199219 C 8.191406 15.199219 8.136719 15.203125 8.082031 15.203125 C 7.054688 15.203125 6.128906 14.773438 5.46875 14.085938 C 4.816406 13.359375 4.421875 12.398438 4.421875 11.34375 C 4.421875 11.277344 4.421875 11.210938 4.425781 11.144531 L 4.425781 11.15625 C 4.421875 11.101562 4.421875 11.035156 4.421875 10.96875 C 4.421875 9.820312 4.871094 8.777344 5.601562 8.007812 L 5.597656 8.007812 C 6.320312 7.269531 7.328125 6.808594 8.445312 6.808594 C 8.492188 6.808594 8.539062 6.808594 8.589844 6.8125 L 8.582031 6.8125 C 8.617188 6.8125 8.652344 6.808594 8.683594 6.808594 C 8.71875 6.808594 8.753906 6.808594 8.789062 6.808594 Z M 11 0.691406 C 5.304688 0.691406 0.691406 5.304688 0.691406 11 C 0.691406 16.695312 5.304688 21.308594 11 21.308594 C 16.695312 21.308594 21.308594 16.695312 21.308594 11 C 21.308594 8.152344 20.15625 5.574219 18.289062 3.710938 C 16.425781 1.84375 13.847656 0.691406 11 0.691406 Z M 11 0.691406 "/>
</g>
</svg>
