<?xml version="1.0" encoding="UTF-8"?>
<svg xmlns="http://www.w3.org/2000/svg" xmlns:xlink="http://www.w3.org/1999/xlink" width="20px" height="20px" viewBox="0 0 22 22" version="1.1">
<g id="surface1">
<path style=" stroke:none;fill-rule:nonzero;fill:rgb(100%,100%,100%);fill-opacity:1;" d="M 20.757812 0.0234375 L 18.929688 19.84375 L 11 21.976562 L 3.070312 19.84375 L 1.242188 0.0234375 Z M 17.070312 4.050781 L 4.808594 4.050781 L 5.101562 6.445312 L 11.324219 6.445312 L 10.992188 6.582031 L 5.316406 8.945312 L 5.507812 11.285156 L 10.992188 11.304688 L 13.933594 11.3125 L 13.746094 14.433594 L 10.992188 15.207031 L 10.96875 15.210938 L 8.3125 14.542969 L 8.152344 12.605469 L 5.667969 12.605469 L 5.988281 16.34375 L 10.992188 17.824219 L 10.992188 17.820312 L 11 17.824219 L 15.976562 16.371094 L 16.621094 8.945312 L 10.980469 8.945312 L 10.992188 8.941406 L 16.828125 6.445312 Z M 17.070312 4.050781 "/>
</g>
</svg>
