<?xml version="1.0" encoding="UTF-8"?>
<svg xmlns="http://www.w3.org/2000/svg" xmlns:xlink="http://www.w3.org/1999/xlink" width="26px" height="26px" viewBox="0 0 22 22" version="1.1">
<g id="surface1">
<path style=" stroke:none;fill-rule:nonzero;fill:rgb(100%,100%,100%);fill-opacity:1;" d="M 21.09375 9.191406 C 20.671875 8.910156 20.152344 8.746094 19.597656 8.746094 C 19.53125 8.746094 19.46875 8.75 19.40625 8.753906 L 19.414062 8.75 C 19.109375 8.753906 18.808594 8.78125 18.515625 8.832031 L 18.546875 8.824219 C 18.386719 7.894531 17.84375 7.109375 17.089844 6.632812 L 17.078125 6.625 L 16.78125 6.453125 L 16.589844 6.734375 C 16.355469 7.085938 16.175781 7.496094 16.066406 7.933594 L 16.0625 7.960938 C 16 8.183594 15.964844 8.441406 15.964844 8.703125 C 15.964844 9.273438 16.132812 9.808594 16.417969 10.257812 L 16.410156 10.246094 C 15.972656 10.449219 15.460938 10.578125 14.921875 10.605469 L 1.347656 10.605469 C 0.992188 10.605469 0.707031 10.890625 0.707031 11.246094 C 0.703125 11.285156 0.703125 11.332031 0.703125 11.375 C 0.703125 12.582031 0.921875 13.734375 1.320312 14.796875 L 1.300781 14.730469 C 1.683594 15.855469 2.40625 16.777344 3.347656 17.398438 L 3.367188 17.410156 C 4.566406 18.03125 5.984375 18.394531 7.488281 18.394531 C 7.632812 18.394531 7.773438 18.390625 7.914062 18.386719 L 7.894531 18.386719 C 7.90625 18.386719 7.921875 18.386719 7.933594 18.386719 C 8.808594 18.386719 9.664062 18.304688 10.492188 18.144531 L 10.40625 18.160156 C 11.640625 17.925781 12.742188 17.511719 13.738281 16.9375 L 13.6875 16.964844 C 14.550781 16.460938 15.289062 15.851562 15.917969 15.144531 L 15.925781 15.132812 C 16.835938 14.0625 17.578125 12.808594 18.089844 11.445312 L 18.117188 11.359375 L 18.308594 11.359375 C 18.34375 11.359375 18.386719 11.363281 18.433594 11.363281 C 19.277344 11.363281 20.042969 11.03125 20.605469 10.492188 C 20.863281 10.246094 21.070312 9.949219 21.207031 9.613281 L 21.210938 9.597656 L 21.296875 9.347656 Z M 2.605469 10.207031 L 4.425781 10.207031 C 4.511719 10.207031 4.582031 10.136719 4.582031 10.050781 L 4.582031 8.429688 C 4.582031 8.34375 4.511719 8.273438 4.425781 8.269531 L 2.605469 8.269531 C 2.519531 8.273438 2.449219 8.34375 2.449219 8.429688 L 2.449219 10.050781 C 2.449219 10.136719 2.519531 10.207031 2.605469 10.207031 Z M 5.109375 10.207031 L 6.929688 10.207031 C 7.015625 10.207031 7.085938 10.136719 7.085938 10.050781 L 7.085938 8.429688 C 7.085938 8.34375 7.015625 8.273438 6.929688 8.269531 L 5.109375 8.269531 C 5.023438 8.269531 4.949219 8.34375 4.949219 8.429688 L 4.949219 10.050781 C 4.953125 10.136719 5.023438 10.207031 5.109375 10.207031 Z M 7.652344 10.207031 L 9.472656 10.207031 C 9.558594 10.207031 9.628906 10.136719 9.628906 10.050781 L 9.628906 8.429688 C 9.628906 8.34375 9.558594 8.273438 9.472656 8.269531 L 7.652344 8.269531 C 7.566406 8.273438 7.496094 8.34375 7.496094 8.429688 L 7.496094 10.050781 C 7.496094 10.136719 7.566406 10.207031 7.652344 10.207031 Z M 10.167969 10.207031 L 11.984375 10.207031 C 12.070312 10.207031 12.144531 10.136719 12.144531 10.050781 L 12.144531 8.429688 C 12.144531 8.34375 12.070312 8.269531 11.984375 8.269531 L 10.167969 8.269531 C 10.078125 8.269531 10.007812 8.34375 10.007812 8.429688 L 10.007812 10.050781 C 10.007812 10.136719 10.078125 10.207031 10.167969 10.207031 Z M 5.109375 7.878906 L 6.929688 7.878906 C 7.015625 7.878906 7.085938 7.808594 7.085938 7.71875 L 7.085938 6.101562 C 7.085938 6.011719 7.015625 5.941406 6.929688 5.941406 L 5.109375 5.941406 C 5.023438 5.941406 4.953125 6.011719 4.953125 6.101562 L 4.953125 7.71875 C 4.953125 7.808594 5.023438 7.878906 5.109375 7.878906 Z M 7.652344 7.878906 L 9.472656 7.878906 C 9.558594 7.878906 9.628906 7.808594 9.628906 7.71875 L 9.628906 6.101562 C 9.628906 6.011719 9.558594 5.941406 9.472656 5.941406 L 7.65625 5.941406 C 7.566406 5.941406 7.496094 6.011719 7.496094 6.101562 L 7.496094 7.71875 C 7.496094 7.808594 7.566406 7.878906 7.65625 7.878906 Z M 10.167969 7.878906 L 11.984375 7.878906 C 12.070312 7.878906 12.144531 7.808594 12.144531 7.71875 L 12.144531 6.101562 C 12.144531 6.011719 12.070312 5.941406 11.984375 5.941406 L 10.167969 5.941406 C 10.078125 5.941406 10.007812 6.011719 10.007812 6.101562 L 10.007812 7.71875 C 10.007812 7.808594 10.078125 7.878906 10.167969 7.878906 Z M 10.167969 5.550781 L 11.984375 5.550781 C 12.070312 5.550781 12.144531 5.480469 12.144531 5.390625 L 12.144531 3.769531 C 12.144531 3.683594 12.070312 3.613281 11.984375 3.613281 L 10.167969 3.613281 C 10.078125 3.613281 10.007812 3.683594 10.007812 3.769531 L 10.007812 5.390625 C 10.007812 5.480469 10.078125 5.550781 10.167969 5.550781 Z M 12.703125 10.207031 L 14.519531 10.207031 C 14.605469 10.207031 14.679688 10.136719 14.679688 10.050781 L 14.679688 8.429688 C 14.679688 8.34375 14.605469 8.269531 14.519531 8.269531 L 12.703125 8.269531 C 12.613281 8.269531 12.542969 8.34375 12.542969 8.429688 L 12.542969 10.050781 C 12.542969 10.136719 12.613281 10.207031 12.703125 10.207031 Z M 12.703125 10.207031 "/>
</g>
</svg>
