<?xml version="1.0" encoding="UTF-8"?>
<svg xmlns="http://www.w3.org/2000/svg" xmlns:xlink="http://www.w3.org/1999/xlink" width="22px" height="22px" viewBox="0 0 22 22" version="1.1">
<defs>
<filter id="alpha" filterUnits="objectBoundingBox" x="0%" y="0%" width="100%" height="100%">
  <feColorMatrix type="matrix" in="SourceGraphic" values="0 0 0 0 1 0 0 0 0 1 0 0 0 0 1 0 0 0 1 0"/>
</filter>
<mask id="mask0">
  <g filter="url(#alpha)">
<rect x="0" y="0" width="22" height="22" style="fill:rgb(0%,0%,0%);fill-opacity:0.101961;stroke:none;"/>
  </g>
</mask>
<clipPath id="clip1">
  <rect x="0" y="0" width="22" height="22"/>
</clipPath>
<g id="surface5" clip-path="url(#clip1)">
<path style=" stroke:none;fill-rule:nonzero;fill:rgb(100%,100%,100%);fill-opacity:1;" d="M 3.375 3.09375 C 0.328125 5.808594 -0.964844 9.988281 0.015625 13.949219 C 0.996094 17.910156 4.089844 21.003906 8.050781 21.984375 C 12.011719 22.964844 16.191406 21.671875 18.90625 18.625 Z M 3.375 3.09375 "/>
</g>
</defs>
<g id="surface1">
<path style=" stroke:none;fill-rule:nonzero;fill:rgb(36.078432%,17.647059%,56.862748%);fill-opacity:1;" d="M 22 11 C 22 4.925781 17.074219 0 11 0 C 4.925781 0 0 4.925781 0 11 C 0 17.074219 4.925781 22 11 22 C 17.074219 22 22 17.074219 22 11 Z M 22 11 "/>
<use xlink:href="#surface5" mask="url(#mask0)"/>
<path style=" stroke:none;fill-rule:nonzero;fill:rgb(100%,100%,100%);fill-opacity:1;" d="M 2.542969 14.179688 C 2.414062 14.183594 2.289062 14.128906 2.199219 14.035156 C 2.109375 13.945312 2.058594 13.820312 2.058594 13.691406 C 2.058594 13.5625 2.109375 13.4375 2.199219 13.347656 C 2.289062 13.253906 2.414062 13.199219 2.542969 13.199219 C 2.675781 13.199219 2.796875 13.253906 2.886719 13.347656 C 2.980469 13.4375 3.03125 13.5625 3.03125 13.691406 C 3.03125 13.820312 2.980469 13.945312 2.886719 14.035156 C 2.796875 14.128906 2.671875 14.179688 2.542969 14.179688 Z M 2.542969 14.179688 "/>
<path style=" stroke:none;fill-rule:nonzero;fill:rgb(100%,100%,100%);fill-opacity:1;" d="M 9.375 14.09375 L 8.472656 14.09375 L 5.253906 9.09375 C 5.171875 8.972656 5.105469 8.839844 5.054688 8.703125 L 5.027344 8.703125 C 5.054688 8.988281 5.066406 9.277344 5.058594 9.5625 L 5.058594 14.09375 L 4.328125 14.09375 L 4.328125 7.828125 L 5.28125 7.828125 L 8.414062 12.734375 C 8.546875 12.941406 8.628906 13.078125 8.667969 13.15625 L 8.6875 13.15625 C 8.648438 12.851562 8.636719 12.542969 8.640625 12.234375 L 8.640625 7.828125 L 9.375 7.828125 Z M 9.375 14.09375 "/>
<path style=" stroke:none;fill-rule:nonzero;fill:rgb(100%,100%,100%);fill-opacity:1;" d="M 14.332031 14.09375 L 11 14.09375 L 11 7.828125 L 14.175781 7.828125 L 14.175781 8.492188 L 11.75 8.492188 L 11.75 10.574219 L 14.011719 10.574219 L 14.011719 11.234375 L 11.75 11.234375 L 11.75 13.40625 L 14.335938 13.40625 Z M 14.332031 14.09375 "/>
<path style=" stroke:none;fill-rule:nonzero;fill:rgb(100%,100%,100%);fill-opacity:1;" d="M 19.25 8.492188 L 17.429688 8.492188 L 17.429688 14.09375 L 16.695312 14.09375 L 16.695312 8.492188 L 14.894531 8.492188 L 14.894531 7.828125 L 19.25 7.828125 Z M 19.25 8.492188 "/>
</g>
</svg>
