<?xml version="1.0" encoding="UTF-8"?>
<svg xmlns="http://www.w3.org/2000/svg" xmlns:xlink="http://www.w3.org/1999/xlink" width="20px" height="20px" viewBox="0 0 22 22" version="1.1">
<g id="surface1">
<path style=" stroke:none;fill-rule:evenodd;fill:rgb(100%,100%,100%);fill-opacity:1;" d="M 16.980469 6.601562 L 7.492188 6.601562 L 7.71875 8.800781 L 16.753906 8.800781 C 16.621094 10.726562 16.21875 14.808594 16.074219 16.667969 L 11 18.097656 L 11 18.101562 L 10.988281 18.105469 L 5.910156 16.320312 L 5.5625 12.101562 L 8.050781 12.101562 L 8.226562 14.371094 L 10.992188 15.398438 L 11 15.398438 L 13.757812 14.410156 L 14.042969 11 L 5.453125 11 C 5.410156 10.558594 4.875 4.832031 4.785156 4.398438 L 17.199219 4.398438 C 17.132812 5.125 17.058594 5.871094 16.980469 6.601562 Z M 1.101562 0 L 2.902344 19.960938 L 10.988281 22 L 19.097656 19.921875 L 20.898438 0 Z M 1.101562 0 "/>
</g>
</svg>
