<?xml version="1.0" encoding="UTF-8"?>
<svg xmlns="http://www.w3.org/2000/svg" xmlns:xlink="http://www.w3.org/1999/xlink" width="22px" height="22px" viewBox="0 0 22 22" version="1.1">
<g id="surface1">
<path style=" stroke:none;fill-rule:nonzero;fill:rgb(100%,100%,100%);fill-opacity:1;" d="M 10.28125 0.0078125 C 10.230469 0.0117188 10.082031 0.0234375 9.945312 0.0351562 C 6.820312 0.316406 3.894531 2.003906 2.039062 4.59375 C 1.007812 6.035156 0.347656 7.671875 0.0976562 9.402344 C 0.0117188 10.007812 0 10.183594 0 11.003906 C 0 11.824219 0.0117188 12 0.0976562 12.605469 C 0.695312 16.738281 3.636719 20.207031 7.625 21.492188 C 8.335938 21.722656 9.089844 21.882812 9.945312 21.976562 C 10.28125 22.011719 11.71875 22.011719 12.054688 21.976562 C 13.53125 21.8125 14.78125 21.445312 16.015625 20.816406 C 16.207031 20.71875 16.242188 20.695312 16.21875 20.671875 C 16.199219 20.660156 15.394531 19.578125 14.425781 18.269531 L 12.667969 15.894531 L 10.460938 12.632812 C 9.25 10.839844 8.25 9.371094 8.242188 9.371094 C 8.234375 9.371094 8.226562 10.820312 8.222656 12.589844 C 8.214844 15.6875 8.214844 15.8125 8.175781 15.886719 C 8.117188 15.992188 8.074219 16.035156 7.984375 16.082031 C 7.917969 16.117188 7.855469 16.121094 7.53125 16.121094 L 7.160156 16.121094 L 7.058594 16.058594 C 6.996094 16.019531 6.949219 15.964844 6.917969 15.902344 L 6.871094 15.804688 L 6.875 11.492188 L 6.882812 7.179688 L 6.949219 7.097656 C 6.984375 7.050781 7.054688 6.992188 7.109375 6.964844 C 7.195312 6.921875 7.230469 6.917969 7.601562 6.917969 C 8.039062 6.917969 8.113281 6.933594 8.226562 7.058594 C 8.261719 7.09375 9.453125 8.890625 10.882812 11.058594 C 12.308594 13.222656 14.261719 16.179688 15.222656 17.632812 L 16.964844 20.269531 L 17.050781 20.210938 C 17.832031 19.703125 18.65625 18.980469 19.3125 18.230469 C 20.703125 16.632812 21.601562 14.683594 21.902344 12.605469 C 21.988281 12 22 11.824219 22 11.003906 C 22 10.183594 21.988281 10.007812 21.902344 9.402344 C 21.304688 5.269531 18.363281 1.800781 14.375 0.511719 C 13.671875 0.285156 12.925781 0.128906 12.085938 0.0351562 C 11.878906 0.0117188 10.457031 -0.0117188 10.28125 0.0078125 Z M 14.78125 6.660156 C 14.886719 6.710938 14.96875 6.808594 15 6.914062 C 15.015625 6.96875 15.023438 8.164062 15.015625 10.859375 L 15.011719 14.726562 L 14.328125 13.679688 L 13.644531 12.636719 L 13.644531 9.824219 C 13.644531 8.007812 13.652344 6.988281 13.667969 6.9375 C 13.699219 6.816406 13.777344 6.722656 13.878906 6.667969 C 13.96875 6.621094 14 6.617188 14.335938 6.617188 C 14.65625 6.617188 14.710938 6.621094 14.78125 6.660156 Z M 14.78125 6.660156 "/>
</g>
</svg>
