<?xml version="1.0" encoding="UTF-8"?>
<svg xmlns="http://www.w3.org/2000/svg" xmlns:xlink="http://www.w3.org/1999/xlink" width="22px" height="22px" viewBox="0 0 19 19" version="1.1">
<g id="surface1">
<path style=" stroke:none;fill-rule:nonzero;fill:rgb(100%,100%,100%);fill-opacity:1;" d="M 13.5625 0 C 12.820312 0.0078125 12.089844 0.113281 11.378906 0.316406 L 11.328125 0.335938 C 10.882812 0.257812 10.429688 0.214844 9.976562 0.203125 C 9.042969 0.1875 8.242188 0.414062 7.59375 0.792969 C 6.957031 0.574219 5.636719 0.1875 4.246094 0.265625 C 3.277344 0.316406 2.21875 0.613281 1.433594 1.441406 C 0.65625 2.265625 0.242188 3.546875 0.328125 5.292969 C 0.351562 5.769531 0.488281 6.550781 0.71875 7.570312 C 0.941406 8.585938 1.261719 9.773438 1.660156 10.855469 C 2.058594 11.941406 2.496094 12.914062 3.175781 13.574219 C 3.515625 13.90625 3.984375 14.1875 4.539062 14.164062 C 4.925781 14.148438 5.277344 13.976562 5.578125 13.726562 C 5.726562 13.921875 5.886719 14.003906 6.027344 14.082031 C 6.210938 14.183594 6.382812 14.25 6.566406 14.292969 C 6.894531 14.375 7.453125 14.484375 8.109375 14.375 C 8.332031 14.335938 8.566406 14.261719 8.800781 14.160156 C 8.8125 14.417969 8.820312 14.675781 8.828125 14.9375 C 8.863281 15.753906 8.886719 16.511719 9.128906 17.179688 C 9.167969 17.285156 9.277344 17.84375 9.703125 18.339844 C 10.132812 18.832031 10.96875 19.140625 11.925781 18.933594 C 12.597656 18.792969 13.453125 18.53125 14.023438 17.722656 C 14.585938 16.925781 14.839844 15.777344 14.886719 13.914062 C 14.898438 13.8125 14.917969 13.730469 14.929688 13.648438 L 15.0625 13.664062 L 15.078125 13.664062 C 15.796875 13.691406 16.578125 13.589844 17.230469 13.289062 C 17.804688 13.023438 18.242188 12.753906 18.558594 12.273438 C 18.636719 12.15625 18.726562 12.011719 18.75 11.761719 C 18.773438 11.519531 18.628906 11.132812 18.394531 10.953125 C 17.925781 10.59375 17.628906 10.730469 17.308594 10.796875 C 16.996094 10.867188 16.679688 10.902344 16.359375 10.914062 C 17.273438 9.371094 17.929688 7.734375 18.304688 6.285156 C 18.527344 5.429688 18.652344 4.640625 18.660156 3.953125 C 18.671875 3.261719 18.617188 2.652344 18.203125 2.125 C 16.910156 0.476562 15.09375 0.0195312 13.691406 0.00390625 C 13.648438 0.00390625 13.605469 0.00390625 13.5625 0.00390625 Z M 13.523438 0.507812 C 14.851562 0.496094 16.546875 0.867188 17.765625 2.425781 C 18.042969 2.773438 18.121094 3.285156 18.113281 3.914062 C 18.101562 4.546875 17.984375 5.296875 17.773438 6.125 C 17.359375 7.726562 16.578125 9.585938 15.480469 11.261719 C 15.519531 11.289062 15.5625 11.3125 15.605469 11.328125 C 15.832031 11.425781 16.355469 11.503906 17.402344 11.292969 C 17.664062 11.234375 17.855469 11.199219 18.054688 11.351562 C 18.15625 11.433594 18.207031 11.558594 18.203125 11.6875 C 18.191406 11.78125 18.15625 11.875 18.097656 11.953125 C 17.894531 12.253906 17.496094 12.542969 16.988281 12.78125 C 16.535156 12.992188 15.886719 13.101562 15.3125 13.105469 C 15.023438 13.109375 14.757812 13.089844 14.53125 13.015625 L 14.519531 13.015625 C 14.433594 13.851562 14.230469 15.511719 14.101562 16.265625 C 13.996094 16.871094 13.8125 17.359375 13.464844 17.71875 C 13.113281 18.085938 12.625 18.300781 11.957031 18.445312 C 11.136719 18.621094 10.539062 18.433594 10.152344 18.105469 C 9.765625 17.78125 9.589844 17.347656 9.484375 17.085938 C 9.410156 16.902344 9.375 16.667969 9.335938 16.351562 C 9.300781 16.039062 9.273438 15.652344 9.257812 15.21875 C 9.230469 14.554688 9.222656 13.886719 9.230469 13.21875 C 8.890625 13.535156 8.460938 13.742188 8.003906 13.824219 C 7.457031 13.917969 6.972656 13.824219 6.679688 13.753906 C 6.539062 13.714844 6.398438 13.664062 6.269531 13.589844 C 6.132812 13.519531 6.007812 13.441406 5.921875 13.277344 C 5.871094 13.1875 5.855469 13.078125 5.875 12.976562 C 5.902344 12.871094 5.964844 12.78125 6.046875 12.714844 C 6.203125 12.585938 6.414062 12.515625 6.722656 12.449219 C 7.292969 12.332031 7.496094 12.253906 7.613281 12.15625 C 7.71875 12.074219 7.835938 11.910156 8.039062 11.664062 C 8.039062 11.65625 8.039062 11.644531 8.035156 11.632812 C 7.667969 11.621094 7.308594 11.527344 6.984375 11.347656 C 6.867188 11.472656 6.257812 12.117188 5.519531 13.007812 C 5.207031 13.378906 4.867188 13.589844 4.5 13.605469 C 4.140625 13.621094 3.8125 13.441406 3.53125 13.171875 C 2.976562 12.628906 2.53125 11.699219 2.144531 10.648438 C 1.757812 9.59375 1.445312 8.421875 1.21875 7.429688 C 0.996094 6.429688 0.863281 5.625 0.84375 5.238281 C 0.761719 3.589844 1.148438 2.480469 1.808594 1.777344 C 2.472656 1.074219 3.378906 0.8125 4.261719 0.761719 C 5.847656 0.671875 7.359375 1.222656 7.660156 1.34375 C 8.25 0.941406 9.007812 0.695312 9.953125 0.710938 C 10.402344 0.71875 10.847656 0.777344 11.28125 0.882812 L 11.296875 0.875 C 11.492188 0.808594 11.683594 0.75 11.882812 0.707031 C 12.421875 0.582031 12.972656 0.515625 13.519531 0.507812 Z M 13.644531 1.035156 L 13.527344 1.035156 C 13.074219 1.042969 12.621094 1.09375 12.179688 1.191406 C 13.164062 1.625 13.910156 2.296875 14.433594 2.972656 C 14.800781 3.433594 15.101562 3.945312 15.328125 4.488281 C 15.417969 4.699219 15.476562 4.875 15.507812 5.011719 C 15.527344 5.082031 15.535156 5.140625 15.542969 5.199219 C 15.542969 5.230469 15.546875 5.261719 15.53125 5.3125 C 15.53125 5.316406 15.527344 5.320312 15.527344 5.324219 C 15.550781 6.019531 15.378906 6.488281 15.355469 7.148438 C 15.34375 7.628906 15.464844 8.191406 15.496094 8.804688 C 15.523438 9.382812 15.453125 10.019531 15.078125 10.644531 C 15.109375 10.679688 15.136719 10.71875 15.167969 10.757812 C 16.160156 9.191406 16.878906 7.464844 17.257812 5.988281 C 17.464844 5.195312 17.570312 4.472656 17.582031 3.90625 C 17.589844 3.335938 17.484375 2.921875 17.347656 2.75 C 16.285156 1.390625 14.847656 1.042969 13.644531 1.035156 Z M 9.847656 1.238281 C 8.914062 1.242188 8.246094 1.523438 7.734375 1.949219 C 7.207031 2.386719 6.855469 2.984375 6.628906 3.597656 C 6.351562 4.324219 6.257812 5.03125 6.21875 5.511719 L 6.230469 5.503906 C 6.511719 5.347656 6.882812 5.1875 7.28125 5.097656 C 7.679688 5.003906 8.109375 4.976562 8.496094 5.128906 C 8.886719 5.273438 9.203125 5.628906 9.320312 6.164062 C 9.878906 8.746094 9.148438 9.703125 8.878906 10.425781 C 8.777344 10.691406 8.6875 10.957031 8.617188 11.226562 C 8.648438 11.222656 8.683594 11.210938 8.71875 11.207031 C 8.910156 11.195312 9.058594 11.253906 9.144531 11.292969 C 9.417969 11.40625 9.601562 11.640625 9.703125 11.910156 C 9.730469 11.980469 9.746094 12.054688 9.761719 12.136719 C 9.769531 12.167969 9.777344 12.199219 9.777344 12.234375 C 9.746094 13.222656 9.746094 14.207031 9.785156 15.195312 C 9.804688 15.621094 9.832031 15.996094 9.867188 16.292969 C 9.898438 16.585938 9.945312 16.8125 9.976562 16.890625 C 10.078125 17.144531 10.226562 17.472656 10.496094 17.699219 C 10.761719 17.925781 11.144531 18.074219 11.847656 17.925781 C 12.457031 17.792969 12.832031 17.613281 13.082031 17.351562 C 13.332031 17.089844 13.480469 16.726562 13.574219 16.175781 C 13.722656 15.34375 14.007812 12.929688 14.042969 12.480469 C 14.027344 12.136719 14.078125 11.875 14.1875 11.671875 C 14.300781 11.46875 14.472656 11.339844 14.625 11.273438 C 14.699219 11.238281 14.769531 11.21875 14.828125 11.199219 C 14.765625 11.113281 14.703125 11.027344 14.636719 10.941406 C 14.421875 10.679688 14.242188 10.386719 14.109375 10.074219 C 14.046875 9.941406 13.976562 9.8125 13.902344 9.6875 C 13.800781 9.5 13.667969 9.261719 13.527344 8.992188 C 13.25 8.460938 12.945312 7.8125 12.789062 7.179688 C 12.628906 6.550781 12.609375 5.898438 13.011719 5.441406 C 13.367188 5.03125 13.992188 4.863281 14.929688 4.957031 C 14.902344 4.875 14.886719 4.804688 14.839844 4.695312 C 14.628906 4.195312 14.347656 3.722656 14.015625 3.296875 C 13.21875 2.28125 11.929688 1.269531 9.941406 1.238281 Z M 4.59375 1.28125 C 4.492188 1.28125 4.390625 1.28125 4.292969 1.289062 C 3.492188 1.335938 2.738281 1.566406 2.195312 2.140625 C 1.65625 2.714844 1.300781 3.652344 1.375 5.207031 C 1.390625 5.503906 1.519531 6.328125 1.738281 7.308594 C 1.957031 8.289062 2.269531 9.441406 2.644531 10.460938 C 3.019531 11.480469 3.46875 12.367188 3.902344 12.785156 C 4.121094 12.996094 4.308594 13.082031 4.476562 13.074219 C 4.648438 13.066406 4.855469 12.964844 5.109375 12.664062 C 5.570312 12.105469 6.046875 11.570312 6.542969 11.042969 C 5.828125 10.421875 5.480469 9.480469 5.621094 8.546875 C 5.699219 7.964844 5.710938 7.414062 5.699219 6.984375 C 5.691406 6.5625 5.664062 6.285156 5.664062 6.109375 C 5.664062 6.101562 5.664062 6.097656 5.664062 6.09375 L 5.664062 6.089844 L 5.660156 6.082031 C 5.660156 5.171875 5.820312 4.269531 6.128906 3.410156 C 6.351562 2.820312 6.679688 2.222656 7.175781 1.738281 C 6.691406 1.578125 5.828125 1.335938 4.894531 1.289062 C 4.792969 1.28125 4.691406 1.28125 4.59375 1.28125 Z M 14.40625 5.460938 C 13.871094 5.46875 13.570312 5.609375 13.410156 5.789062 C 13.1875 6.046875 13.164062 6.496094 13.304688 7.054688 C 13.441406 7.609375 13.730469 8.230469 14 8.75 C 14.132812 9.007812 14.261719 9.242188 14.367188 9.429688 C 14.476562 9.621094 14.554688 9.753906 14.601562 9.871094 C 14.644531 9.976562 14.691406 10.070312 14.742188 10.15625 C 14.949219 9.714844 14.988281 9.285156 14.964844 8.835938 C 14.9375 8.277344 14.808594 7.710938 14.828125 7.132812 C 14.851562 6.460938 14.984375 6.019531 14.992188 5.5 C 14.800781 5.476562 14.601562 5.460938 14.410156 5.460938 Z M 7.890625 5.554688 C 7.726562 5.554688 7.5625 5.574219 7.402344 5.613281 C 7.082031 5.691406 6.777344 5.808594 6.488281 5.96875 C 6.390625 6.019531 6.300781 6.082031 6.214844 6.148438 L 6.195312 6.164062 C 6.199219 6.28125 6.222656 6.558594 6.230469 6.972656 C 6.242188 7.425781 6.230469 8 6.144531 8.621094 C 5.953125 9.976562 6.9375 11.097656 8.089844 11.097656 C 8.160156 10.820312 8.269531 10.539062 8.378906 10.242188 C 8.703125 9.375 9.332031 8.746094 8.800781 6.277344 C 8.714844 5.875 8.542969 5.710938 8.304688 5.621094 C 8.171875 5.574219 8.03125 5.550781 7.890625 5.554688 Z M 14.15625 5.714844 L 14.199219 5.714844 C 14.246094 5.71875 14.296875 5.722656 14.339844 5.734375 C 14.378906 5.742188 14.417969 5.753906 14.449219 5.777344 C 14.480469 5.796875 14.5 5.824219 14.507812 5.863281 L 14.507812 5.871094 C 14.507812 5.90625 14.496094 5.945312 14.480469 5.976562 C 14.453125 6.019531 14.425781 6.0625 14.394531 6.09375 C 14.3125 6.183594 14.203125 6.242188 14.085938 6.261719 C 13.972656 6.277344 13.859375 6.246094 13.761719 6.179688 C 13.722656 6.152344 13.6875 6.121094 13.660156 6.089844 C 13.632812 6.058594 13.617188 6.023438 13.609375 5.984375 C 13.609375 5.949219 13.617188 5.914062 13.640625 5.882812 C 13.667969 5.855469 13.699219 5.832031 13.734375 5.8125 C 13.8125 5.769531 13.914062 5.738281 14.03125 5.722656 C 14.074219 5.71875 14.117188 5.714844 14.15625 5.710938 Z M 7.964844 5.847656 C 8.007812 5.847656 8.054688 5.851562 8.097656 5.855469 C 8.21875 5.875 8.324219 5.90625 8.40625 5.957031 C 8.449219 5.976562 8.484375 6.003906 8.511719 6.039062 C 8.542969 6.078125 8.558594 6.121094 8.554688 6.171875 C 8.546875 6.21875 8.527344 6.261719 8.496094 6.296875 C 8.464844 6.335938 8.425781 6.371094 8.382812 6.398438 C 8.28125 6.472656 8.15625 6.503906 8.027344 6.488281 C 7.898438 6.464844 7.78125 6.40625 7.695312 6.308594 C 7.660156 6.269531 7.628906 6.226562 7.605469 6.179688 C 7.574219 6.136719 7.5625 6.085938 7.570312 6.035156 C 7.582031 5.953125 7.652344 5.90625 7.722656 5.882812 C 7.800781 5.855469 7.882812 5.847656 7.964844 5.851562 Z M 15.136719 11.660156 L 15.132812 11.660156 C 15.019531 11.703125 14.925781 11.71875 14.84375 11.757812 C 14.761719 11.789062 14.695312 11.851562 14.65625 11.925781 C 14.601562 12.015625 14.5625 12.179688 14.574219 12.453125 C 14.609375 12.476562 14.648438 12.496094 14.695312 12.507812 C 14.828125 12.550781 15.054688 12.578125 15.308594 12.574219 C 15.8125 12.566406 16.433594 12.449219 16.765625 12.296875 C 17.035156 12.171875 17.289062 12.003906 17.511719 11.808594 C 16.40625 12.035156 15.785156 11.976562 15.402344 11.820312 C 15.308594 11.78125 15.21875 11.726562 15.136719 11.660156 Z M 8.78125 11.734375 L 8.765625 11.734375 C 8.722656 11.738281 8.660156 11.753906 8.542969 11.882812 C 8.265625 12.191406 8.171875 12.386719 7.945312 12.566406 C 7.714844 12.75 7.421875 12.847656 6.832031 12.96875 C 6.644531 13.003906 6.539062 13.046875 6.464844 13.082031 C 6.488281 13.101562 6.488281 13.105469 6.519531 13.121094 C 6.609375 13.171875 6.71875 13.210938 6.808594 13.234375 C 7.0625 13.296875 7.476562 13.371094 7.914062 13.296875 C 8.347656 13.222656 8.796875 13.015625 9.183594 12.476562 C 9.253906 12.382812 9.257812 12.242188 9.203125 12.09375 C 9.148438 11.949219 9.027344 11.820312 8.941406 11.785156 C 8.890625 11.761719 8.835938 11.746094 8.777344 11.734375 Z M 8.78125 11.734375 "/>
</g>
</svg>
