<?xml version="1.0" encoding="UTF-8"?>
<svg xmlns="http://www.w3.org/2000/svg" xmlns:xlink="http://www.w3.org/1999/xlink" width="17px" height="17px" viewBox="0 0 19 19" version="1.1">
<g id="surface1">
<path style="fill-rule:nonzero;fill:rgb(100%,100%,100%);fill-opacity:1;stroke-width:1;stroke-linecap:butt;stroke-linejoin:miter;stroke:rgb(100%,100%,100%);stroke-opacity:1;stroke-miterlimit:4;" d="M 22.199013 9.740132 L 15.108553 9.740132 C 14.541118 9.671053 14.111842 9.172697 14.111842 8.585526 L 14.111842 1.144737 C 14.111842 0.508224 13.598684 0 12.967105 0 L 10.485197 0 C 9.853618 0 9.340461 0.513158 9.340461 1.144737 L 9.340461 8.664474 C 9.310855 9.231908 8.842105 9.685855 8.279605 9.740132 L 6.424342 9.740132 C 5.876645 9.671053 5.457237 9.212171 5.417763 8.659539 L 5.417763 1.144737 C 5.417763 0.508224 4.904605 0 4.277961 0 L 1.796053 0 C 1.159539 0 0.651316 0.513158 0.651316 1.144737 L 0.651316 22.855263 C 0.651316 23.491776 1.164474 24 1.796053 24 L 22.203947 24 C 22.840461 24 23.348684 23.486842 23.348684 22.855263 L 23.348684 10.884868 C 23.34375 10.248355 22.835526 9.740132 22.199013 9.740132 Z M 18.932566 17.950658 C 18.932566 18.582237 18.419408 19.095395 17.787829 19.095395 L 15.310855 19.095395 C 14.674342 19.095395 14.166118 18.577303 14.166118 17.950658 L 14.166118 15.606908 C 14.166118 14.975329 14.679276 14.462171 15.310855 14.462171 L 17.787829 14.462171 C 18.424342 14.462171 18.932566 14.980263 18.932566 15.606908 Z M 18.932566 17.950658 " transform="matrix(0.791667,0,0,0.791667,0,0)"/>
</g>
</svg>
