<?xml version="1.0" encoding="UTF-8"?>
<svg xmlns="http://www.w3.org/2000/svg" xmlns:xlink="http://www.w3.org/1999/xlink" width="24px" height="24px" viewBox="0 0 22 22" version="1.1">
<g id="surface1">
<path style=" stroke:none;fill-rule:nonzero;fill:rgb(100%,100%,100%);fill-opacity:1;" d="M 11 9.265625 C 11.945312 9.265625 12.710938 10.03125 12.714844 10.976562 C 12.71875 11.921875 11.957031 12.6875 11.011719 12.695312 C 10.066406 12.703125 9.296875 11.945312 9.285156 11 C 9.28125 10.046875 10.046875 9.273438 11 9.265625 M 6.753906 18.332031 C 7.332031 18.683594 8.589844 18.148438 10.054688 16.773438 C 9.566406 16.21875 9.105469 15.636719 8.671875 15.035156 C 7.933594 14.949219 7.199219 14.828125 6.472656 14.667969 C 6.003906 16.628906 6.179688 17.976562 6.753906 18.332031 M 7.40625 13.070312 L 7.140625 12.605469 C 7.039062 12.863281 6.949219 13.125 6.875 13.390625 C 7.121094 13.449219 7.398438 13.492188 7.683594 13.539062 L 7.40625 13.070312 M 13.402344 12.375 L 14.144531 11 L 13.402344 9.625 C 13.125 9.140625 12.832031 8.707031 12.566406 8.277344 C 12.074219 8.25 11.550781 8.25 11 8.25 C 10.449219 8.25 9.925781 8.25 9.433594 8.25 C 9.167969 8.679688 8.875 9.113281 8.597656 9.597656 L 7.855469 11 L 8.597656 12.375 C 8.875 12.859375 9.167969 13.292969 9.433594 13.722656 C 9.925781 13.722656 10.449219 13.722656 11 13.722656 C 11.550781 13.722656 12.074219 13.722656 12.566406 13.722656 C 12.832031 13.292969 13.125 12.859375 13.402344 12.375 M 11 6.214844 C 10.824219 6.417969 10.640625 6.628906 10.460938 6.875 L 11.539062 6.875 C 11.359375 6.628906 11.175781 6.417969 11 6.214844 M 11 15.785156 C 11.175781 15.582031 11.359375 15.371094 11.539062 15.125 L 10.460938 15.125 C 10.640625 15.371094 10.824219 15.582031 11 15.785156 M 15.234375 3.667969 C 14.667969 3.316406 13.402344 3.851562 11.945312 5.226562 C 12.433594 5.78125 12.894531 6.363281 13.328125 6.964844 C 14.066406 7.039062 14.800781 7.148438 15.527344 7.296875 C 15.996094 5.335938 15.820312 3.988281 15.234375 3.628906 M 14.59375 8.890625 L 14.859375 9.359375 C 14.960938 9.101562 15.050781 8.839844 15.125 8.570312 C 14.878906 8.515625 14.601562 8.46875 14.316406 8.425781 L 14.59375 8.890625 M 15.921875 2.476562 C 17.269531 3.246094 17.417969 5.269531 16.839844 7.636719 C 19.167969 8.324219 20.84375 9.46875 20.84375 11.007812 C 20.84375 12.550781 19.167969 13.695312 16.839844 14.382812 C 17.40625 16.746094 17.261719 18.773438 15.921875 19.542969 C 14.585938 20.3125 12.761719 19.433594 11 17.753906 C 9.238281 19.433594 7.414062 20.3125 6.066406 19.542969 C 4.722656 18.773438 4.582031 16.792969 5.152344 14.382812 C 2.824219 13.695312 1.144531 12.550781 1.144531 11.007812 C 1.144531 9.46875 2.824219 8.3125 5.152344 7.625 C 4.582031 5.261719 4.730469 3.234375 6.066406 2.464844 C 7.40625 1.695312 9.238281 2.574219 11 4.253906 C 12.761719 2.574219 14.585938 1.695312 15.921875 2.464844 M 15.65625 11 C 15.976562 11.675781 16.257812 12.367188 16.5 13.070312 C 18.425781 12.496094 19.507812 11.667969 19.507812 11 C 19.507812 10.332031 18.398438 9.503906 16.5 8.929688 C 16.257812 9.632812 15.976562 10.324219 15.65625 11 M 6.34375 11 C 6.023438 10.324219 5.742188 9.632812 5.5 8.929688 C 3.574219 9.503906 2.492188 10.332031 2.492188 11 C 2.492188 11.667969 3.601562 12.496094 5.5 13.070312 C 5.742188 12.367188 6.023438 11.675781 6.34375 11 M 14.59375 13.070312 L 14.316406 13.539062 C 14.601562 13.539062 14.878906 13.449219 15.125 13.390625 C 15.050781 13.125 14.960938 12.863281 14.859375 12.605469 L 14.59375 13.070312 M 11.917969 16.773438 C 13.375 18.148438 14.667969 18.683594 15.207031 18.332031 C 15.75 17.984375 15.96875 16.664062 15.5 14.667969 C 14.773438 14.816406 14.039062 14.925781 13.300781 14.996094 C 12.871094 15.613281 12.40625 16.207031 11.917969 16.773438 M 7.40625 8.929688 L 7.683594 8.460938 C 7.398438 8.460938 7.121094 8.550781 6.875 8.609375 C 6.949219 8.875 7.039062 9.136719 7.140625 9.394531 L 7.40625 8.929688 M 10.082031 5.226562 C 8.597656 3.851562 7.332031 3.316406 6.753906 3.667969 C 6.179688 4.015625 6.003906 5.335938 6.472656 7.332031 C 7.199219 7.183594 7.933594 7.074219 8.671875 7.003906 C 9.113281 6.386719 9.582031 5.792969 10.082031 5.226562 Z M 10.082031 5.226562 "/>
</g>
</svg>
