<?xml version="1.0" encoding="UTF-8"?>
<svg xmlns="http://www.w3.org/2000/svg" xmlns:xlink="http://www.w3.org/1999/xlink" width="22px" height="22px" viewBox="0 0 22 22" version="1.1">
<g id="surface1">
<path style=" stroke:none;fill-rule:nonzero;fill:rgb(100%,100%,100%);fill-opacity:1;" d="M 21.992188 13.144531 C 21.984375 13.355469 21.707031 13.589844 21.136719 13.886719 C 19.964844 14.5 13.882812 17 12.585938 17.675781 C 11.289062 18.351562 10.574219 18.34375 9.550781 17.851562 C 8.523438 17.367188 2.054688 14.75 0.886719 14.195312 C 0.308594 13.914062 0.0117188 13.679688 0 13.460938 L 0 15.683594 C 0 15.90625 0.308594 16.136719 0.886719 16.417969 C 2.054688 16.976562 8.527344 19.589844 9.550781 20.078125 C 10.574219 20.566406 11.289062 20.574219 12.585938 19.898438 C 13.882812 19.222656 19.960938 16.722656 21.136719 16.109375 C 21.734375 15.800781 22 15.558594 22 15.339844 C 22 15.132812 22 13.148438 22 13.148438 C 22 13.144531 21.996094 13.144531 21.992188 13.144531 Z M 21.992188 9.519531 C 21.980469 9.730469 21.707031 9.960938 21.136719 10.261719 C 19.964844 10.871094 13.882812 13.375 12.585938 14.046875 C 11.289062 14.722656 10.574219 14.714844 9.550781 14.230469 C 8.523438 13.738281 2.054688 11.125 0.886719 10.566406 C 0.308594 10.292969 0.0117188 10.054688 0 9.832031 L 0 12.054688 C 0 12.277344 0.308594 12.515625 0.886719 12.789062 C 2.054688 13.347656 8.523438 15.964844 9.550781 16.453125 C 10.574219 16.941406 11.289062 16.949219 12.585938 16.273438 C 13.882812 15.597656 19.960938 13.097656 21.136719 12.488281 C 21.734375 12.175781 22 11.929688 22 11.714844 C 22 11.503906 22 9.519531 22 9.519531 C 22 9.519531 21.996094 9.519531 21.992188 9.519531 Z M 21.992188 5.757812 C 22.003906 5.535156 21.714844 5.339844 21.121094 5.125 C 19.980469 4.707031 13.933594 2.300781 12.777344 1.871094 C 11.621094 1.449219 11.144531 1.46875 9.785156 1.957031 C 8.425781 2.445312 1.992188 4.96875 0.84375 5.417969 C 0.273438 5.644531 -0.0078125 5.851562 0.00390625 6.074219 L 0.00390625 8.296875 C 0.00390625 8.519531 0.308594 8.75 0.890625 9.03125 C 2.054688 9.589844 8.527344 12.203125 9.554688 12.691406 C 10.574219 13.179688 11.292969 13.1875 12.589844 12.511719 C 13.882812 11.835938 19.964844 9.335938 21.140625 8.726562 C 21.734375 8.414062 22 8.171875 22 7.953125 C 22 7.746094 22 5.757812 22 5.757812 Z M 7.878906 7.863281 L 12.976562 7.082031 L 11.4375 9.339844 Z M 19.152344 5.828125 L 15.8125 7.152344 L 12.796875 5.957031 L 16.136719 4.640625 Z M 10.300781 3.644531 L 9.808594 2.734375 L 11.347656 3.335938 L 12.796875 2.863281 L 12.402344 3.800781 L 13.882812 4.355469 L 11.976562 4.554688 L 11.546875 5.582031 L 10.859375 4.4375 L 8.65625 4.238281 Z M 6.503906 4.929688 C 8.011719 4.929688 9.226562 5.402344 9.226562 5.984375 C 9.226562 6.566406 8.007812 7.039062 6.503906 7.039062 C 5 7.039062 3.777344 6.566406 3.777344 5.984375 C 3.777344 5.402344 5 4.929688 6.503906 4.929688 Z M 6.503906 4.929688 "/>
</g>
</svg>
