<?xml version="1.0" encoding="UTF-8"?>
<svg xmlns="http://www.w3.org/2000/svg" xmlns:xlink="http://www.w3.org/1999/xlink" width="22px" height="22px" viewBox="0 0 22 22" version="1.1">
<g id="surface1">
<path style=" stroke:none;fill-rule:nonzero;fill:rgb(100%,100%,100%);fill-opacity:1;" d="M 11 3.667969 C 9.496094 3.667969 8.203125 4.074219 7.1875 4.941406 C 6.179688 5.808594 5.519531 7.066406 5.152344 8.632812 C 5.074219 8.976562 5.246094 9.328125 5.566406 9.46875 C 5.886719 9.613281 6.265625 9.507812 6.46875 9.21875 C 6.933594 8.558594 7.394531 8.160156 7.839844 7.953125 C 8.273438 7.753906 8.738281 7.714844 9.269531 7.859375 C 9.808594 8.003906 10.222656 8.425781 10.878906 9.132812 L 10.898438 9.15625 C 11.390625 9.691406 11.992188 10.347656 12.8125 10.855469 C 13.667969 11.378906 14.726562 11.734375 16.132812 11.734375 C 17.636719 11.734375 18.933594 11.328125 19.949219 10.457031 C 20.957031 9.59375 21.613281 8.335938 21.980469 6.765625 C 22.0625 6.425781 21.886719 6.074219 21.566406 5.929688 C 21.246094 5.789062 20.867188 5.890625 20.664062 6.179688 C 20.203125 6.84375 19.738281 7.242188 19.292969 7.445312 C 18.859375 7.644531 18.394531 7.683594 17.863281 7.542969 C 17.324219 7.398438 16.910156 6.976562 16.257812 6.265625 L 16.234375 6.242188 C 15.742188 5.707031 15.140625 5.054688 14.320312 4.546875 C 13.46875 4.019531 12.40625 3.667969 11 3.667969 Z M 11 3.667969 "/>
<path style=" stroke:none;fill-rule:nonzero;fill:rgb(100%,100%,100%);fill-opacity:1;" d="M 5.867188 10.265625 C 4.363281 10.265625 3.066406 10.671875 2.054688 11.542969 C 1.042969 12.40625 0.386719 13.664062 0.0195312 15.234375 C -0.0625 15.574219 0.113281 15.925781 0.433594 16.070312 C 0.753906 16.210938 1.132812 16.109375 1.335938 15.820312 C 1.796875 15.15625 2.261719 14.757812 2.707031 14.554688 C 3.140625 14.355469 3.605469 14.316406 4.136719 14.457031 C 4.675781 14.601562 5.089844 15.023438 5.742188 15.734375 L 5.765625 15.757812 C 6.257812 16.292969 6.859375 16.945312 7.679688 17.453125 C 8.53125 17.980469 9.59375 18.332031 11 18.332031 C 12.503906 18.332031 13.796875 17.925781 14.8125 17.058594 C 15.820312 16.191406 16.480469 14.933594 16.847656 13.367188 C 16.925781 13.023438 16.753906 12.671875 16.433594 12.53125 C 16.113281 12.386719 15.734375 12.492188 15.53125 12.78125 C 15.066406 13.441406 14.605469 13.839844 14.160156 14.046875 C 13.726562 14.246094 13.261719 14.285156 12.730469 14.140625 C 12.191406 13.996094 11.777344 13.574219 11.121094 12.867188 L 11.101562 12.84375 C 10.609375 12.308594 10.007812 11.652344 9.1875 11.144531 C 8.335938 10.621094 7.273438 10.265625 5.867188 10.265625 Z M 5.867188 10.265625 "/>
</g>
</svg>
