<?xml version="1.0" encoding="UTF-8"?>
<svg xmlns="http://www.w3.org/2000/svg" xmlns:xlink="http://www.w3.org/1999/xlink" width="122px" height="31px" viewBox="0 0 121 31" version="1.1">
<defs>
<filter id="alpha" filterUnits="objectBoundingBox" x="0%" y="0%" width="100%" height="100%">
  <feColorMatrix type="matrix" in="SourceGraphic" values="0 0 0 0 1 0 0 0 0 1 0 0 0 0 1 0 0 0 1 0"/>
</filter>
<mask id="mask0">
  <g filter="url(#alpha)">
<rect x="0" y="0" width="121" height="31" style="fill:rgb(0%,0%,0%);fill-opacity:0.984314;stroke:none;"/>
  </g>
</mask>
<clipPath id="clip1">
  <rect x="0" y="0" width="121" height="32"/>
</clipPath>
<g id="surface5" clip-path="url(#clip1)">
<path style=" stroke:none;fill-rule:evenodd;fill:rgb(99.607843%,99.607843%,99.607843%);fill-opacity:1;" d="M 0.644531 1.332031 C 2.792969 1.308594 4.9375 1.332031 7.085938 1.410156 C 10.480469 8.1875 13.878906 14.96875 17.273438 21.746094 C 20.640625 14.953125 24.023438 8.175781 27.425781 1.410156 C 29.582031 1.308594 31.742188 1.308594 33.90625 1.410156 C 28.960938 10.765625 24.035156 20.132812 19.132812 29.515625 C 17.875 29.617188 16.625 29.617188 15.378906 29.515625 C 10.550781 20.285156 5.703125 11.070312 0.832031 1.867188 C 0.726562 1.703125 0.664062 1.523438 0.644531 1.332031 Z M 0.644531 1.332031 "/>
</g>
<mask id="mask1">
  <g filter="url(#alpha)">
<rect x="0" y="0" width="121" height="31" style="fill:rgb(0%,0%,0%);fill-opacity:0.980392;stroke:none;"/>
  </g>
</mask>
<clipPath id="clip2">
  <rect x="0" y="0" width="121" height="32"/>
</clipPath>
<g id="surface8" clip-path="url(#clip2)">
<path style=" stroke:none;fill-rule:evenodd;fill:rgb(99.607843%,100%,99.607843%);fill-opacity:1;" d="M 114.597656 1.332031 C 116.390625 1.332031 118.183594 1.332031 119.976562 1.332031 C 119.976562 10.753906 119.976562 20.171875 119.976562 29.589844 C 118.183594 29.589844 116.390625 29.589844 114.597656 29.589844 C 114.597656 20.171875 114.597656 10.753906 114.597656 1.332031 Z M 114.597656 1.332031 "/>
</g>
<mask id="mask2">
  <g filter="url(#alpha)">
<rect x="0" y="0" width="121" height="31" style="fill:rgb(0%,0%,0%);fill-opacity:0.984314;stroke:none;"/>
  </g>
</mask>
<clipPath id="clip3">
  <rect x="0" y="0" width="121" height="32"/>
</clipPath>
<g id="surface11" clip-path="url(#clip3)">
<path style=" stroke:none;fill-rule:evenodd;fill:rgb(99.607843%,99.607843%,99.607843%);fill-opacity:1;" d="M 40.117188 8.035156 C 43.03125 7.765625 45.65625 8.488281 48 10.207031 C 50.085938 12.078125 51.285156 14.429688 51.597656 17.25 C 51.691406 18.316406 51.730469 19.382812 51.710938 20.449219 C 46.507812 20.449219 41.304688 20.449219 36.101562 20.449219 C 36.539062 24.8125 38.886719 26.550781 43.148438 25.667969 C 44.398438 25.148438 45.332031 24.285156 45.953125 23.078125 C 47.769531 23.183594 49.589844 23.296875 51.40625 23.421875 C 50.496094 26.078125 48.753906 27.96875 46.179688 29.097656 C 43.070312 30.304688 39.9375 30.355469 36.785156 29.25 C 33.046875 27.59375 30.964844 24.710938 30.535156 20.601562 C 30.121094 17.277344 30.902344 14.28125 32.882812 11.617188 C 34.832031 9.472656 37.242188 8.28125 40.117188 8.035156 Z M 40.875 12.074219 C 44.097656 12.136719 45.863281 13.785156 46.179688 17.023438 C 42.847656 17.023438 39.511719 17.023438 36.179688 17.023438 C 36.515625 14.167969 38.082031 12.519531 40.875 12.074219 Z M 40.875 12.074219 "/>
</g>
<mask id="mask3">
  <g filter="url(#alpha)">
<rect x="0" y="0" width="121" height="31" style="fill:rgb(0%,0%,0%);fill-opacity:0.984314;stroke:none;"/>
  </g>
</mask>
<clipPath id="clip4">
  <rect x="0" y="0" width="121" height="32"/>
</clipPath>
<g id="surface14" clip-path="url(#clip4)">
<path style=" stroke:none;fill-rule:evenodd;fill:rgb(99.607843%,99.607843%,99.607843%);fill-opacity:1;" d="M 77.167969 8.035156 C 80.128906 7.773438 82.828125 8.472656 85.277344 10.128906 C 87.257812 11.589844 88.371094 13.558594 88.609375 16.03125 C 86.765625 16.121094 84.921875 16.199219 83.078125 16.261719 C 82.792969 14.535156 81.859375 13.304688 80.273438 12.566406 C 76.714844 11.597656 74.402344 12.878906 73.34375 16.414062 C 72.890625 18.585938 73.015625 20.714844 73.722656 22.8125 C 74.777344 25.089844 76.558594 26.09375 79.0625 25.820312 C 81.027344 25.546875 82.328125 24.46875 82.964844 22.582031 C 83.078125 22.234375 83.140625 21.878906 83.15625 21.515625 C 85.023438 21.570312 86.894531 21.648438 88.761719 21.746094 C 88.253906 25.269531 86.386719 27.742188 83.15625 29.171875 C 79.851562 30.382812 76.566406 30.332031 73.304688 29.019531 C 70.085938 27.40625 68.207031 24.804688 67.660156 21.210938 C 67.109375 17.867188 67.765625 14.796875 69.628906 11.996094 C 71.589844 9.621094 74.105469 8.300781 77.167969 8.035156 Z M 77.167969 8.035156 "/>
</g>
<mask id="mask4">
  <g filter="url(#alpha)">
<rect x="0" y="0" width="121" height="31" style="fill:rgb(0%,0%,0%);fill-opacity:0.984314;stroke:none;"/>
  </g>
</mask>
<clipPath id="clip5">
  <rect x="0" y="0" width="121" height="32"/>
</clipPath>
<g id="surface17" clip-path="url(#clip5)">
<path style=" stroke:none;fill-rule:evenodd;fill:rgb(99.607843%,99.607843%,99.607843%);fill-opacity:1;" d="M 100.050781 8.035156 C 102.566406 7.8125 104.917969 8.332031 107.097656 9.597656 C 109.710938 11.460938 111.1875 14.011719 111.527344 17.25 C 111.625 18.316406 111.664062 19.382812 111.644531 20.449219 C 106.441406 20.449219 101.238281 20.449219 96.035156 20.449219 C 96.097656 21.820312 96.511719 23.0625 97.285156 24.183594 C 98.617188 25.660156 100.269531 26.234375 102.246094 25.898438 C 103.910156 25.542969 105.121094 24.605469 105.882812 23.078125 C 107.703125 23.183594 109.519531 23.296875 111.339844 23.421875 C 110.429688 26.078125 108.6875 27.96875 106.113281 29.097656 C 103.085938 30.273438 100.027344 30.351562 96.945312 29.324219 C 93.066406 27.691406 90.90625 24.757812 90.464844 20.527344 C 90.09375 17.375 90.800781 14.507812 92.585938 11.921875 C 94.539062 9.585938 97.023438 8.292969 100.050781 8.035156 Z M 100.808594 12.074219 C 104.027344 12.136719 105.796875 13.785156 106.113281 17.023438 C 102.777344 17.023438 99.445312 17.023438 96.109375 17.023438 C 96.449219 14.167969 98.015625 12.519531 100.808594 12.074219 Z M 100.808594 12.074219 "/>
</g>
<mask id="mask5">
  <g filter="url(#alpha)">
<rect x="0" y="0" width="121" height="31" style="fill:rgb(0%,0%,0%);fill-opacity:0.984314;stroke:none;"/>
  </g>
</mask>
<clipPath id="clip6">
  <rect x="0" y="0" width="121" height="32"/>
</clipPath>
<g id="surface20" clip-path="url(#clip6)">
<path style=" stroke:none;fill-rule:evenodd;fill:rgb(99.607843%,99.607843%,99.607843%);fill-opacity:1;" d="M 54.589844 8.492188 C 56.257812 8.492188 57.925781 8.492188 59.589844 8.492188 C 59.613281 9.789062 59.648438 11.082031 59.703125 12.378906 C 60.265625 10.339844 61.566406 9.082031 63.605469 8.605469 C 64.714844 8.503906 65.824219 8.464844 66.941406 8.492188 C 66.941406 9.964844 66.941406 11.4375 66.941406 12.910156 C 65.878906 12.898438 64.820312 12.910156 63.757812 12.949219 C 61.488281 13.148438 60.214844 14.378906 59.933594 16.640625 C 59.894531 20.957031 59.882812 25.273438 59.894531 29.589844 C 58.125 29.589844 56.359375 29.589844 54.589844 29.589844 C 54.589844 22.558594 54.589844 15.523438 54.589844 8.492188 Z M 54.589844 8.492188 "/>
</g>
</defs>
<g id="surface1">
<use xlink:href="#surface5" mask="url(#mask0)"/>
<use xlink:href="#surface8" mask="url(#mask1)"/>
<use xlink:href="#surface11" mask="url(#mask2)"/>
<use xlink:href="#surface14" mask="url(#mask3)"/>
<use xlink:href="#surface17" mask="url(#mask4)"/>
<use xlink:href="#surface20" mask="url(#mask5)"/>
</g>
</svg>
